<svg height="28" viewBox="0 0 30 28" width="30" xmlns="http://www.w3.org/2000/svg"><path d="m29.976 27.9v-21.024h-14.976v-5.976h-14.976v27zm-18-21.024h-2.952v-2.952h2.952zm-5.976 0h-3.024v-2.952h3.024zm21.024 18h-12.024v-2.952h3.024v-3.024h-3.024v-3.024h3.024v-2.952h-3.024v-3.024h12.024zm-15.048-11.952h-2.952v-3.024h2.952zm-5.976 0h-3.024v-3.024h3.024zm18 2.952v-2.952h-3.024v2.952zm-12.024 3.024h-2.952v-3.024h2.952zm-5.976 0h-3.024v-3.024h3.024zm18 3.024v-3.024h-3.024v3.024zm-12.024 2.952h-2.952v-2.952h2.952zm-5.976 0h-3.024v-2.952h3.024z" fill="#fff"/></svg>